<svg xmlns="http://www.w3.org/2000/svg" viewBox="0 0 224 304" fill="none">
  <defs>
    <clipPath id="bust-clip">
      <path d="M57 180C41 166 32 145 31 118C29 89 40 62 61 46C83 28 114 24 141 33C167 41 186 61 191 88C196 118 189 146 169 169L158 182C166 189 174 194 184 197L195 201C202 203 207 209 208 217L211 227C213 237 208 246 199 248C161 259 63 259 24 248C15 246 10 237 12 227L15 217C16 209 21 203 29 201L41 197C48 194 54 190 57 185V180Z"/>
    </clipPath>
  </defs>

  <g clip-path="url(#bust-clip)" stroke="#241E19" stroke-linecap="round" stroke-linejoin="round">
    <path d="M57 61C93 49 136 49 171 61" stroke-width="6.5"/>
    <path d="M42 97C86 84 140 84 185 97" stroke-width="6.5"/>
    <path d="M47 133C86 123 138 123 178 133" stroke-width="6.5"/>
    <path d="M53 170C88 160 135 160 168 170" stroke-width="6.5"/>
    <path d="M85 30C77 65 75 114 78 188" stroke-width="6.5"/>
    <path d="M116 25C109 71 108 123 112 206" stroke-width="6.5"/>
    <path d="M147 35C144 73 144 122 148 195" stroke-width="6.5"/>
    <path d="M61 191C92 181 131 181 163 191" stroke-width="6"/>
    <path d="M64 214C94 208 129 208 160 214" stroke-width="6"/>
  </g>

  <path
    d="M57 180C41 166 32 145 31 118C29 89 40 62 61 46C83 28 114 24 141 33C167 41 186 61 191 88C196 118 189 146 169 169L158 182C166 189 174 194 184 197L195 201C202 203 207 209 208 217L211 227C213 237 208 246 199 248C161 259 63 259 24 248C15 246 10 237 12 227L15 217C16 209 21 203 29 201L41 197C48 194 54 190 57 185V180Z"
    stroke="#241E19"
    stroke-width="9"
    stroke-linecap="round"
    stroke-linejoin="round"
  />

  <rect x="55" y="226" width="114" height="22" rx="11" stroke="#241E19" stroke-width="9"/>
  <rect x="17" y="260" width="190" height="26" rx="13" stroke="#241E19" stroke-width="9"/>
</svg>
